<?xml version="1.0" encoding="utf-8"?>
<svg xmlns="http://www.w3.org/2000/svg" xmlns:xlink="http://www.w3.org/1999/xlink" xml:space="preserve" width="1023" height="1023" viewBox="0 0 1023 1023"><rect width="1023" height="1023" fill="#ffffff" x="0" y="0"/><g fill="#000000">
<g transform="translate(341,62) scale(5.3216666666667)"><rect width="6" height="6"/></g>
<g transform="translate(372,62) scale(5.3216666666667)"><rect width="6" height="6"/></g>
<g transform="translate(403,62) scale(5.3216666666667)"><rect width="6" height="6"/></g>
<g transform="translate(434,62) scale(5.3216666666667)"><rect width="6" height="6"/></g>
<g transform="translate(465,62) scale(5.3216666666667)"><rect width="6" height="6"/></g>
<g transform="translate(527,62) scale(5.3216666666667)"><rect width="6" height="6"/></g>
<g transform="translate(558,62) scale(5.3216666666667)"><rect width="6" height="6"/></g>
<g transform="translate(620,62) scale(5.3216666666667)"><rect width="6" height="6"/></g>
<g transform="translate(651,62) scale(5.3216666666667)"><rect width="6" height="6"/></g>
<g transform="translate(310,93) scale(5.3216666666667)"><rect width="6" height="6"/></g>
<g transform="translate(527,93) scale(5.3216666666667)"><rect width="6" height="6"/></g>
<g transform="translate(589,93) scale(5.3216666666667)"><rect width="6" height="6"/></g>
<g transform="translate(651,93) scale(5.3216666666667)"><rect width="6" height="6"/></g>
<g transform="translate(341,124) scale(5.3216666666667)"><rect width="6" height="6"/></g>
<g transform="translate(403,124) scale(5.3216666666667)"><rect width="6" height="6"/></g>
<g transform="translate(434,124) scale(5.3216666666667)"><rect width="6" height="6"/></g>
<g transform="translate(465,124) scale(5.3216666666667)"><rect width="6" height="6"/></g>
<g transform="translate(496,124) scale(5.3216666666667)"><rect width="6" height="6"/></g>
<g transform="translate(558,124) scale(5.3216666666667)"><rect width="6" height="6"/></g>
<g transform="translate(682,124) scale(5.3216666666667)"><rect width="6" height="6"/></g>
<g transform="translate(310,155) scale(5.3216666666667)"><rect width="6" height="6"/></g>
<g transform="translate(341,155) scale(5.3216666666667)"><rect width="6" height="6"/></g>
<g transform="translate(372,155) scale(5.3216666666667)"><rect width="6" height="6"/></g>
<g transform="translate(434,155) scale(5.3216666666667)"><rect width="6" height="6"/></g>
<g transform="translate(465,155) scale(5.3216666666667)"><rect width="6" height="6"/></g>
<g transform="translate(527,155) scale(5.3216666666667)"><rect width="6" height="6"/></g>
<g transform="translate(589,155) scale(5.3216666666667)"><rect width="6" height="6"/></g>
<g transform="translate(620,155) scale(5.3216666666667)"><rect width="6" height="6"/></g>
<g transform="translate(651,155) scale(5.3216666666667)"><rect width="6" height="6"/></g>
<g transform="translate(341,186) scale(5.3216666666667)"><rect width="6" height="6"/></g>
<g transform="translate(403,186) scale(5.3216666666667)"><rect width="6" height="6"/></g>
<g transform="translate(527,186) scale(5.3216666666667)"><rect width="6" height="6"/></g>
<g transform="translate(589,186) scale(5.3216666666667)"><rect width="6" height="6"/></g>
<g transform="translate(620,186) scale(5.3216666666667)"><rect width="6" height="6"/></g>
<g transform="translate(651,186) scale(5.3216666666667)"><rect width="6" height="6"/></g>
<g transform="translate(310,217) scale(5.3216666666667)"><rect width="6" height="6"/></g>
<g transform="translate(496,217) scale(5.3216666666667)"><rect width="6" height="6"/></g>
<g transform="translate(527,217) scale(5.3216666666667)"><rect width="6" height="6"/></g>
<g transform="translate(310,248) scale(5.3216666666667)"><rect width="6" height="6"/></g>
<g transform="translate(372,248) scale(5.3216666666667)"><rect width="6" height="6"/></g>
<g transform="translate(434,248) scale(5.3216666666667)"><rect width="6" height="6"/></g>
<g transform="translate(496,248) scale(5.3216666666667)"><rect width="6" height="6"/></g>
<g transform="translate(558,248) scale(5.3216666666667)"><rect width="6" height="6"/></g>
<g transform="translate(620,248) scale(5.3216666666667)"><rect width="6" height="6"/></g>
<g transform="translate(682,248) scale(5.3216666666667)"><rect width="6" height="6"/></g>
<g transform="translate(341,279) scale(5.3216666666667)"><rect width="6" height="6"/></g>
<g transform="translate(372,279) scale(5.3216666666667)"><rect width="6" height="6"/></g>
<g transform="translate(434,279) scale(5.3216666666667)"><rect width="6" height="6"/></g>
<g transform="translate(465,279) scale(5.3216666666667)"><rect width="6" height="6"/></g>
<g transform="translate(527,279) scale(5.3216666666667)"><rect width="6" height="6"/></g>
<g transform="translate(558,279) scale(5.3216666666667)"><rect width="6" height="6"/></g>
<g transform="translate(589,279) scale(5.3216666666667)"><rect width="6" height="6"/></g>
<g transform="translate(620,279) scale(5.3216666666667)"><rect width="6" height="6"/></g>
<g transform="translate(651,279) scale(5.3216666666667)"><rect width="6" height="6"/></g>
<g transform="translate(682,279) scale(5.3216666666667)"><rect width="6" height="6"/></g>
<g transform="translate(62,310) scale(5.3216666666667)"><rect width="6" height="6"/></g>
<g transform="translate(93,310) scale(5.3216666666667)"><rect width="6" height="6"/></g>
<g transform="translate(124,310) scale(5.3216666666667)"><rect width="6" height="6"/></g>
<g transform="translate(155,310) scale(5.3216666666667)"><rect width="6" height="6"/></g>
<g transform="translate(186,310) scale(5.3216666666667)"><rect width="6" height="6"/></g>
<g transform="translate(248,310) scale(5.3216666666667)"><rect width="6" height="6"/></g>
<g transform="translate(279,310) scale(5.3216666666667)"><rect width="6" height="6"/></g>
<g transform="translate(310,310) scale(5.3216666666667)"><rect width="6" height="6"/></g>
<g transform="translate(341,310) scale(5.3216666666667)"><rect width="6" height="6"/></g>
<g transform="translate(434,310) scale(5.3216666666667)"><rect width="6" height="6"/></g>
<g transform="translate(465,310) scale(5.3216666666667)"><rect width="6" height="6"/></g>
<g transform="translate(496,310) scale(5.3216666666667)"><rect width="6" height="6"/></g>
<g transform="translate(527,310) scale(5.3216666666667)"><rect width="6" height="6"/></g>
<g transform="translate(589,310) scale(5.3216666666667)"><rect width="6" height="6"/></g>
<g transform="translate(620,310) scale(5.3216666666667)"><rect width="6" height="6"/></g>
<g transform="translate(713,310) scale(5.3216666666667)"><rect width="6" height="6"/></g>
<g transform="translate(775,310) scale(5.3216666666667)"><rect width="6" height="6"/></g>
<g transform="translate(837,310) scale(5.3216666666667)"><rect width="6" height="6"/></g>
<g transform="translate(899,310) scale(5.3216666666667)"><rect width="6" height="6"/></g>
<g transform="translate(62,341) scale(5.3216666666667)"><rect width="6" height="6"/></g>
<g transform="translate(93,341) scale(5.3216666666667)"><rect width="6" height="6"/></g>
<g transform="translate(186,341) scale(5.3216666666667)"><rect width="6" height="6"/></g>
<g transform="translate(279,341) scale(5.3216666666667)"><rect width="6" height="6"/></g>
<g transform="translate(310,341) scale(5.3216666666667)"><rect width="6" height="6"/></g>
<g transform="translate(403,341) scale(5.3216666666667)"><rect width="6" height="6"/></g>
<g transform="translate(465,341) scale(5.3216666666667)"><rect width="6" height="6"/></g>
<g transform="translate(527,341) scale(5.3216666666667)"><rect width="6" height="6"/></g>
<g transform="translate(558,341) scale(5.3216666666667)"><rect width="6" height="6"/></g>
<g transform="translate(620,341) scale(5.3216666666667)"><rect width="6" height="6"/></g>
<g transform="translate(682,341) scale(5.3216666666667)"><rect width="6" height="6"/></g>
<g transform="translate(806,341) scale(5.3216666666667)"><rect width="6" height="6"/></g>
<g transform="translate(899,341) scale(5.3216666666667)"><rect width="6" height="6"/></g>
<g transform="translate(930,341) scale(5.3216666666667)"><rect width="6" height="6"/></g>
<g transform="translate(93,372) scale(5.3216666666667)"><rect width="6" height="6"/></g>
<g transform="translate(155,372) scale(5.3216666666667)"><rect width="6" height="6"/></g>
<g transform="translate(248,372) scale(5.3216666666667)"><rect width="6" height="6"/></g>
<g transform="translate(279,372) scale(5.3216666666667)"><rect width="6" height="6"/></g>
<g transform="translate(372,372) scale(5.3216666666667)"><rect width="6" height="6"/></g>
<g transform="translate(434,372) scale(5.3216666666667)"><rect width="6" height="6"/></g>
<g transform="translate(496,372) scale(5.3216666666667)"><rect width="6" height="6"/></g>
<g transform="translate(589,372) scale(5.3216666666667)"><rect width="6" height="6"/></g>
<g transform="translate(713,372) scale(5.3216666666667)"><rect width="6" height="6"/></g>
<g transform="translate(806,372) scale(5.3216666666667)"><rect width="6" height="6"/></g>
<g transform="translate(837,372) scale(5.3216666666667)"><rect width="6" height="6"/></g>
<g transform="translate(868,372) scale(5.3216666666667)"><rect width="6" height="6"/></g>
<g transform="translate(124,403) scale(5.3216666666667)"><rect width="6" height="6"/></g>
<g transform="translate(279,403) scale(5.3216666666667)"><rect width="6" height="6"/></g>
<g transform="translate(310,403) scale(5.3216666666667)"><rect width="6" height="6"/></g>
<g transform="translate(558,403) scale(5.3216666666667)"><rect width="6" height="6"/></g>
<g transform="translate(620,403) scale(5.3216666666667)"><rect width="6" height="6"/></g>
<g transform="translate(682,403) scale(5.3216666666667)"><rect width="6" height="6"/></g>
<g transform="translate(713,403) scale(5.3216666666667)"><rect width="6" height="6"/></g>
<g transform="translate(775,403) scale(5.3216666666667)"><rect width="6" height="6"/></g>
<g transform="translate(806,403) scale(5.3216666666667)"><rect width="6" height="6"/></g>
<g transform="translate(837,403) scale(5.3216666666667)"><rect width="6" height="6"/></g>
<g transform="translate(899,403) scale(5.3216666666667)"><rect width="6" height="6"/></g>
<g transform="translate(62,434) scale(5.3216666666667)"><rect width="6" height="6"/></g>
<g transform="translate(93,434) scale(5.3216666666667)"><rect width="6" height="6"/></g>
<g transform="translate(155,434) scale(5.3216666666667)"><rect width="6" height="6"/></g>
<g transform="translate(248,434) scale(5.3216666666667)"><rect width="6" height="6"/></g>
<g transform="translate(341,434) scale(5.3216666666667)"><rect width="6" height="6"/></g>
<g transform="translate(372,434) scale(5.3216666666667)"><rect width="6" height="6"/></g>
<g transform="translate(434,434) scale(5.3216666666667)"><rect width="6" height="6"/></g>
<g transform="translate(465,434) scale(5.3216666666667)"><rect width="6" height="6"/></g>
<g transform="translate(496,434) scale(5.3216666666667)"><rect width="6" height="6"/></g>
<g transform="translate(527,434) scale(5.3216666666667)"><rect width="6" height="6"/></g>
<g transform="translate(589,434) scale(5.3216666666667)"><rect width="6" height="6"/></g>
<g transform="translate(651,434) scale(5.3216666666667)"><rect width="6" height="6"/></g>
<g transform="translate(713,434) scale(5.3216666666667)"><rect width="6" height="6"/></g>
<g transform="translate(868,434) scale(5.3216666666667)"><rect width="6" height="6"/></g>
<g transform="translate(62,465) scale(5.3216666666667)"><rect width="6" height="6"/></g>
<g transform="translate(124,465) scale(5.3216666666667)"><rect width="6" height="6"/></g>
<g transform="translate(155,465) scale(5.3216666666667)"><rect width="6" height="6"/></g>
<g transform="translate(186,465) scale(5.3216666666667)"><rect width="6" height="6"/></g>
<g transform="translate(217,465) scale(5.3216666666667)"><rect width="6" height="6"/></g>
<g transform="translate(310,465) scale(5.3216666666667)"><rect width="6" height="6"/></g>
<g transform="translate(434,465) scale(5.3216666666667)"><rect width="6" height="6"/></g>
<g transform="translate(496,465) scale(5.3216666666667)"><rect width="6" height="6"/></g>
<g transform="translate(527,465) scale(5.3216666666667)"><rect width="6" height="6"/></g>
<g transform="translate(620,465) scale(5.3216666666667)"><rect width="6" height="6"/></g>
<g transform="translate(651,465) scale(5.3216666666667)"><rect width="6" height="6"/></g>
<g transform="translate(775,465) scale(5.3216666666667)"><rect width="6" height="6"/></g>
<g transform="translate(806,465) scale(5.3216666666667)"><rect width="6" height="6"/></g>
<g transform="translate(837,465) scale(5.3216666666667)"><rect width="6" height="6"/></g>
<g transform="translate(868,465) scale(5.3216666666667)"><rect width="6" height="6"/></g>
<g transform="translate(930,465) scale(5.3216666666667)"><rect width="6" height="6"/></g>
<g transform="translate(93,496) scale(5.3216666666667)"><rect width="6" height="6"/></g>
<g transform="translate(124,496) scale(5.3216666666667)"><rect width="6" height="6"/></g>
<g transform="translate(248,496) scale(5.3216666666667)"><rect width="6" height="6"/></g>
<g transform="translate(341,496) scale(5.3216666666667)"><rect width="6" height="6"/></g>
<g transform="translate(434,496) scale(5.3216666666667)"><rect width="6" height="6"/></g>
<g transform="translate(465,496) scale(5.3216666666667)"><rect width="6" height="6"/></g>
<g transform="translate(496,496) scale(5.3216666666667)"><rect width="6" height="6"/></g>
<g transform="translate(527,496) scale(5.3216666666667)"><rect width="6" height="6"/></g>
<g transform="translate(589,496) scale(5.3216666666667)"><rect width="6" height="6"/></g>
<g transform="translate(651,496) scale(5.3216666666667)"><rect width="6" height="6"/></g>
<g transform="translate(775,496) scale(5.3216666666667)"><rect width="6" height="6"/></g>
<g transform="translate(806,496) scale(5.3216666666667)"><rect width="6" height="6"/></g>
<g transform="translate(837,496) scale(5.3216666666667)"><rect width="6" height="6"/></g>
<g transform="translate(868,496) scale(5.3216666666667)"><rect width="6" height="6"/></g>
<g transform="translate(155,527) scale(5.3216666666667)"><rect width="6" height="6"/></g>
<g transform="translate(279,527) scale(5.3216666666667)"><rect width="6" height="6"/></g>
<g transform="translate(310,527) scale(5.3216666666667)"><rect width="6" height="6"/></g>
<g transform="translate(341,527) scale(5.3216666666667)"><rect width="6" height="6"/></g>
<g transform="translate(372,527) scale(5.3216666666667)"><rect width="6" height="6"/></g>
<g transform="translate(558,527) scale(5.3216666666667)"><rect width="6" height="6"/></g>
<g transform="translate(620,527) scale(5.3216666666667)"><rect width="6" height="6"/></g>
<g transform="translate(713,527) scale(5.3216666666667)"><rect width="6" height="6"/></g>
<g transform="translate(744,527) scale(5.3216666666667)"><rect width="6" height="6"/></g>
<g transform="translate(775,527) scale(5.3216666666667)"><rect width="6" height="6"/></g>
<g transform="translate(806,527) scale(5.3216666666667)"><rect width="6" height="6"/></g>
<g transform="translate(837,527) scale(5.3216666666667)"><rect width="6" height="6"/></g>
<g transform="translate(93,558) scale(5.3216666666667)"><rect width="6" height="6"/></g>
<g transform="translate(124,558) scale(5.3216666666667)"><rect width="6" height="6"/></g>
<g transform="translate(155,558) scale(5.3216666666667)"><rect width="6" height="6"/></g>
<g transform="translate(248,558) scale(5.3216666666667)"><rect width="6" height="6"/></g>
<g transform="translate(279,558) scale(5.3216666666667)"><rect width="6" height="6"/></g>
<g transform="translate(434,558) scale(5.3216666666667)"><rect width="6" height="6"/></g>
<g transform="translate(465,558) scale(5.3216666666667)"><rect width="6" height="6"/></g>
<g transform="translate(527,558) scale(5.3216666666667)"><rect width="6" height="6"/></g>
<g transform="translate(589,558) scale(5.3216666666667)"><rect width="6" height="6"/></g>
<g transform="translate(620,558) scale(5.3216666666667)"><rect width="6" height="6"/></g>
<g transform="translate(651,558) scale(5.3216666666667)"><rect width="6" height="6"/></g>
<g transform="translate(713,558) scale(5.3216666666667)"><rect width="6" height="6"/></g>
<g transform="translate(806,558) scale(5.3216666666667)"><rect width="6" height="6"/></g>
<g transform="translate(868,558) scale(5.3216666666667)"><rect width="6" height="6"/></g>
<g transform="translate(899,558) scale(5.3216666666667)"><rect width="6" height="6"/></g>
<g transform="translate(930,558) scale(5.3216666666667)"><rect width="6" height="6"/></g>
<g transform="translate(62,589) scale(5.3216666666667)"><rect width="6" height="6"/></g>
<g transform="translate(93,589) scale(5.3216666666667)"><rect width="6" height="6"/></g>
<g transform="translate(124,589) scale(5.3216666666667)"><rect width="6" height="6"/></g>
<g transform="translate(186,589) scale(5.3216666666667)"><rect width="6" height="6"/></g>
<g transform="translate(372,589) scale(5.3216666666667)"><rect width="6" height="6"/></g>
<g transform="translate(403,589) scale(5.3216666666667)"><rect width="6" height="6"/></g>
<g transform="translate(527,589) scale(5.3216666666667)"><rect width="6" height="6"/></g>
<g transform="translate(558,589) scale(5.3216666666667)"><rect width="6" height="6"/></g>
<g transform="translate(620,589) scale(5.3216666666667)"><rect width="6" height="6"/></g>
<g transform="translate(775,589) scale(5.3216666666667)"><rect width="6" height="6"/></g>
<g transform="translate(806,589) scale(5.3216666666667)"><rect width="6" height="6"/></g>
<g transform="translate(868,589) scale(5.3216666666667)"><rect width="6" height="6"/></g>
<g transform="translate(899,589) scale(5.3216666666667)"><rect width="6" height="6"/></g>
<g transform="translate(930,589) scale(5.3216666666667)"><rect width="6" height="6"/></g>
<g transform="translate(62,620) scale(5.3216666666667)"><rect width="6" height="6"/></g>
<g transform="translate(124,620) scale(5.3216666666667)"><rect width="6" height="6"/></g>
<g transform="translate(186,620) scale(5.3216666666667)"><rect width="6" height="6"/></g>
<g transform="translate(217,620) scale(5.3216666666667)"><rect width="6" height="6"/></g>
<g transform="translate(248,620) scale(5.3216666666667)"><rect width="6" height="6"/></g>
<g transform="translate(372,620) scale(5.3216666666667)"><rect width="6" height="6"/></g>
<g transform="translate(589,620) scale(5.3216666666667)"><rect width="6" height="6"/></g>
<g transform="translate(651,620) scale(5.3216666666667)"><rect width="6" height="6"/></g>
<g transform="translate(713,620) scale(5.3216666666667)"><rect width="6" height="6"/></g>
<g transform="translate(806,620) scale(5.3216666666667)"><rect width="6" height="6"/></g>
<g transform="translate(837,620) scale(5.3216666666667)"><rect width="6" height="6"/></g>
<g transform="translate(62,651) scale(5.3216666666667)"><rect width="6" height="6"/></g>
<g transform="translate(124,651) scale(5.3216666666667)"><rect width="6" height="6"/></g>
<g transform="translate(186,651) scale(5.3216666666667)"><rect width="6" height="6"/></g>
<g transform="translate(217,651) scale(5.3216666666667)"><rect width="6" height="6"/></g>
<g transform="translate(341,651) scale(5.3216666666667)"><rect width="6" height="6"/></g>
<g transform="translate(527,651) scale(5.3216666666667)"><rect width="6" height="6"/></g>
<g transform="translate(558,651) scale(5.3216666666667)"><rect width="6" height="6"/></g>
<g transform="translate(589,651) scale(5.3216666666667)"><rect width="6" height="6"/></g>
<g transform="translate(620,651) scale(5.3216666666667)"><rect width="6" height="6"/></g>
<g transform="translate(682,651) scale(5.3216666666667)"><rect width="6" height="6"/></g>
<g transform="translate(837,651) scale(5.3216666666667)"><rect width="6" height="6"/></g>
<g transform="translate(899,651) scale(5.3216666666667)"><rect width="6" height="6"/></g>
<g transform="translate(930,651) scale(5.3216666666667)"><rect width="6" height="6"/></g>
<g transform="translate(62,682) scale(5.3216666666667)"><rect width="6" height="6"/></g>
<g transform="translate(124,682) scale(5.3216666666667)"><rect width="6" height="6"/></g>
<g transform="translate(186,682) scale(5.3216666666667)"><rect width="6" height="6"/></g>
<g transform="translate(248,682) scale(5.3216666666667)"><rect width="6" height="6"/></g>
<g transform="translate(341,682) scale(5.3216666666667)"><rect width="6" height="6"/></g>
<g transform="translate(403,682) scale(5.3216666666667)"><rect width="6" height="6"/></g>
<g transform="translate(434,682) scale(5.3216666666667)"><rect width="6" height="6"/></g>
<g transform="translate(651,682) scale(5.3216666666667)"><rect width="6" height="6"/></g>
<g transform="translate(682,682) scale(5.3216666666667)"><rect width="6" height="6"/></g>
<g transform="translate(713,682) scale(5.3216666666667)"><rect width="6" height="6"/></g>
<g transform="translate(744,682) scale(5.3216666666667)"><rect width="6" height="6"/></g>
<g transform="translate(775,682) scale(5.3216666666667)"><rect width="6" height="6"/></g>
<g transform="translate(806,682) scale(5.3216666666667)"><rect width="6" height="6"/></g>
<g transform="translate(868,682) scale(5.3216666666667)"><rect width="6" height="6"/></g>
<g transform="translate(899,682) scale(5.3216666666667)"><rect width="6" height="6"/></g>
<g transform="translate(310,713) scale(5.3216666666667)"><rect width="6" height="6"/></g>
<g transform="translate(372,713) scale(5.3216666666667)"><rect width="6" height="6"/></g>
<g transform="translate(403,713) scale(5.3216666666667)"><rect width="6" height="6"/></g>
<g transform="translate(465,713) scale(5.3216666666667)"><rect width="6" height="6"/></g>
<g transform="translate(527,713) scale(5.3216666666667)"><rect width="6" height="6"/></g>
<g transform="translate(589,713) scale(5.3216666666667)"><rect width="6" height="6"/></g>
<g transform="translate(620,713) scale(5.3216666666667)"><rect width="6" height="6"/></g>
<g transform="translate(682,713) scale(5.3216666666667)"><rect width="6" height="6"/></g>
<g transform="translate(806,713) scale(5.3216666666667)"><rect width="6" height="6"/></g>
<g transform="translate(837,713) scale(5.3216666666667)"><rect width="6" height="6"/></g>
<g transform="translate(868,713) scale(5.3216666666667)"><rect width="6" height="6"/></g>
<g transform="translate(899,713) scale(5.3216666666667)"><rect width="6" height="6"/></g>
<g transform="translate(930,713) scale(5.3216666666667)"><rect width="6" height="6"/></g>
<g transform="translate(310,744) scale(5.3216666666667)"><rect width="6" height="6"/></g>
<g transform="translate(341,744) scale(5.3216666666667)"><rect width="6" height="6"/></g>
<g transform="translate(372,744) scale(5.3216666666667)"><rect width="6" height="6"/></g>
<g transform="translate(403,744) scale(5.3216666666667)"><rect width="6" height="6"/></g>
<g transform="translate(434,744) scale(5.3216666666667)"><rect width="6" height="6"/></g>
<g transform="translate(465,744) scale(5.3216666666667)"><rect width="6" height="6"/></g>
<g transform="translate(620,744) scale(5.3216666666667)"><rect width="6" height="6"/></g>
<g transform="translate(651,744) scale(5.3216666666667)"><rect width="6" height="6"/></g>
<g transform="translate(682,744) scale(5.3216666666667)"><rect width="6" height="6"/></g>
<g transform="translate(744,744) scale(5.3216666666667)"><rect width="6" height="6"/></g>
<g transform="translate(806,744) scale(5.3216666666667)"><rect width="6" height="6"/></g>
<g transform="translate(868,744) scale(5.3216666666667)"><rect width="6" height="6"/></g>
<g transform="translate(372,775) scale(5.3216666666667)"><rect width="6" height="6"/></g>
<g transform="translate(403,775) scale(5.3216666666667)"><rect width="6" height="6"/></g>
<g transform="translate(434,775) scale(5.3216666666667)"><rect width="6" height="6"/></g>
<g transform="translate(496,775) scale(5.3216666666667)"><rect width="6" height="6"/></g>
<g transform="translate(527,775) scale(5.3216666666667)"><rect width="6" height="6"/></g>
<g transform="translate(558,775) scale(5.3216666666667)"><rect width="6" height="6"/></g>
<g transform="translate(589,775) scale(5.3216666666667)"><rect width="6" height="6"/></g>
<g transform="translate(620,775) scale(5.3216666666667)"><rect width="6" height="6"/></g>
<g transform="translate(682,775) scale(5.3216666666667)"><rect width="6" height="6"/></g>
<g transform="translate(806,775) scale(5.3216666666667)"><rect width="6" height="6"/></g>
<g transform="translate(899,775) scale(5.3216666666667)"><rect width="6" height="6"/></g>
<g transform="translate(310,806) scale(5.3216666666667)"><rect width="6" height="6"/></g>
<g transform="translate(341,806) scale(5.3216666666667)"><rect width="6" height="6"/></g>
<g transform="translate(403,806) scale(5.3216666666667)"><rect width="6" height="6"/></g>
<g transform="translate(620,806) scale(5.3216666666667)"><rect width="6" height="6"/></g>
<g transform="translate(682,806) scale(5.3216666666667)"><rect width="6" height="6"/></g>
<g transform="translate(713,806) scale(5.3216666666667)"><rect width="6" height="6"/></g>
<g transform="translate(744,806) scale(5.3216666666667)"><rect width="6" height="6"/></g>
<g transform="translate(775,806) scale(5.3216666666667)"><rect width="6" height="6"/></g>
<g transform="translate(806,806) scale(5.3216666666667)"><rect width="6" height="6"/></g>
<g transform="translate(837,806) scale(5.3216666666667)"><rect width="6" height="6"/></g>
<g transform="translate(868,806) scale(5.3216666666667)"><rect width="6" height="6"/></g>
<g transform="translate(930,806) scale(5.3216666666667)"><rect width="6" height="6"/></g>
<g transform="translate(310,837) scale(5.3216666666667)"><rect width="6" height="6"/></g>
<g transform="translate(341,837) scale(5.3216666666667)"><rect width="6" height="6"/></g>
<g transform="translate(372,837) scale(5.3216666666667)"><rect width="6" height="6"/></g>
<g transform="translate(403,837) scale(5.3216666666667)"><rect width="6" height="6"/></g>
<g transform="translate(434,837) scale(5.3216666666667)"><rect width="6" height="6"/></g>
<g transform="translate(465,837) scale(5.3216666666667)"><rect width="6" height="6"/></g>
<g transform="translate(496,837) scale(5.3216666666667)"><rect width="6" height="6"/></g>
<g transform="translate(558,837) scale(5.3216666666667)"><rect width="6" height="6"/></g>
<g transform="translate(589,837) scale(5.3216666666667)"><rect width="6" height="6"/></g>
<g transform="translate(620,837) scale(5.3216666666667)"><rect width="6" height="6"/></g>
<g transform="translate(682,837) scale(5.3216666666667)"><rect width="6" height="6"/></g>
<g transform="translate(775,837) scale(5.3216666666667)"><rect width="6" height="6"/></g>
<g transform="translate(868,837) scale(5.3216666666667)"><rect width="6" height="6"/></g>
<g transform="translate(899,837) scale(5.3216666666667)"><rect width="6" height="6"/></g>
<g transform="translate(310,868) scale(5.3216666666667)"><rect width="6" height="6"/></g>
<g transform="translate(341,868) scale(5.3216666666667)"><rect width="6" height="6"/></g>
<g transform="translate(372,868) scale(5.3216666666667)"><rect width="6" height="6"/></g>
<g transform="translate(403,868) scale(5.3216666666667)"><rect width="6" height="6"/></g>
<g transform="translate(434,868) scale(5.3216666666667)"><rect width="6" height="6"/></g>
<g transform="translate(620,868) scale(5.3216666666667)"><rect width="6" height="6"/></g>
<g transform="translate(713,868) scale(5.3216666666667)"><rect width="6" height="6"/></g>
<g transform="translate(775,868) scale(5.3216666666667)"><rect width="6" height="6"/></g>
<g transform="translate(806,868) scale(5.3216666666667)"><rect width="6" height="6"/></g>
<g transform="translate(868,868) scale(5.3216666666667)"><rect width="6" height="6"/></g>
<g transform="translate(899,868) scale(5.3216666666667)"><rect width="6" height="6"/></g>
<g transform="translate(310,899) scale(5.3216666666667)"><rect width="6" height="6"/></g>
<g transform="translate(341,899) scale(5.3216666666667)"><rect width="6" height="6"/></g>
<g transform="translate(434,899) scale(5.3216666666667)"><rect width="6" height="6"/></g>
<g transform="translate(465,899) scale(5.3216666666667)"><rect width="6" height="6"/></g>
<g transform="translate(558,899) scale(5.3216666666667)"><rect width="6" height="6"/></g>
<g transform="translate(620,899) scale(5.3216666666667)"><rect width="6" height="6"/></g>
<g transform="translate(806,899) scale(5.3216666666667)"><rect width="6" height="6"/></g>
<g transform="translate(899,899) scale(5.3216666666667)"><rect width="6" height="6"/></g>
<g transform="translate(310,930) scale(5.3216666666667)"><rect width="6" height="6"/></g>
<g transform="translate(372,930) scale(5.3216666666667)"><rect width="6" height="6"/></g>
<g transform="translate(434,930) scale(5.3216666666667)"><rect width="6" height="6"/></g>
<g transform="translate(527,930) scale(5.3216666666667)"><rect width="6" height="6"/></g>
<g transform="translate(589,930) scale(5.3216666666667)"><rect width="6" height="6"/></g>
<g transform="translate(682,930) scale(5.3216666666667)"><rect width="6" height="6"/></g>
<g transform="translate(713,930) scale(5.3216666666667)"><rect width="6" height="6"/></g>
<g transform="translate(744,930) scale(5.3216666666667)"><rect width="6" height="6"/></g>
<g transform="translate(806,930) scale(5.3216666666667)"><rect width="6" height="6"/></g>
<g transform="translate(837,930) scale(5.3216666666667)"><rect width="6" height="6"/></g>
<g transform="translate(868,930) scale(5.3216666666667)"><rect width="6" height="6"/></g>
<g transform="translate(62,62)"><g transform="scale(15.5)"><path d="M0,0v14h14V0H0z M12,12H2V2h10V12z"/></g></g>
<g transform="translate(744,62)"><g transform="scale(15.5)"><path d="M0,0v14h14V0H0z M12,12H2V2h10V12z"/></g></g>
<g transform="translate(62,744)"><g transform="scale(15.5)"><path d="M0,0v14h14V0H0z M12,12H2V2h10V12z"/></g></g>
<g transform="translate(124,124)"><g transform="scale(15.5)"><rect width="6" height="6"/></g></g>
<g transform="translate(806,124)"><g transform="scale(15.5)"><rect width="6" height="6"/></g></g>
<g transform="translate(124,806)"><g transform="scale(15.5)"><rect width="6" height="6"/></g></g>
</g></svg>
