<svg id="Layer_1" xmlns="http://www.w3.org/2000/svg" width="80" height="80" viewBox="0 0 80 80" style="position:absolute;top:0;border:0;right:0;"><defs><style>.cls-1{fill:#f2711c;}.cls-7{fill-rule:evenodd;fill:#fff;}</style></defs><title>Github Mark</title><polygon class="cls-1" points="0,0 80,80 80,80 80,0"/><path class="cls-7" d="m50.752323,12.316009a16.29,16.29 0 0 0 -5.15,31.75c0.81,0.15 1.11,-0.35 1.11,-0.79s0,-1.41 0,-2.77c-4.53,1 -5.49,-2.18 -5.49,-2.18a4.31,4.31 0 0 0 -1.81,-2.38c-1.48,-1 0.11,-1 0.11,-1a3.42,3.42 0 0 1 2.5,1.68a3.47,3.47 0 0 0 4.74,1.35a3.48,3.48 0 0 1 1,-2.18c-3.62,-0.41 -7.42,-1.81 -7.42,-8.05a6.3,6.3 0 0 1 1.68,-4.37a5.86,5.86 0 0 1 0.16,-4.31s1.37,-0.44 4.48,1.67a15.44,15.44 0 0 1 8.16,0c3.11,-2.11 4.48,-1.67 4.48,-1.67a5.85,5.85 0 0 1 0.16,4.31a6.29,6.29 0 0 1 1.67,4.37c0,6.26 -3.81,7.63 -7.44,8a3.89,3.89 0 0 1 1.11,3c0,2.18 0,3.93 0,4.47s0.29,0.94 1.12,0.78a16.29,16.29 0 0 0 -5.16,-31.74l-0.01,0.06z" transform="rotate(45.181396484375 50.74730300903319,28.174592971801765)"/></svg>
