<svg version="1" xmlns="http://www.w3.org/2000/svg" width="682.667" height="682.667" viewBox="0 0 512.000000 512.000000"><path d="M236 1.6c-37.5 6-69.5 25.7-91.1 56-10.5 14.7-19.7 35.5-22.4 50.4-.2 1.4-.7 4.1-1 6-1.1 5.9-2 17.2-1.9 23 .1 7.1 1.4 22.2 2 23.2.2.4.7 2.6 1 5 .9 6.5 5.8 20.8 10.5 30.3 13.5 27.9 36 50.5 63.5 63.7l8.4 4V512l85.2-.2 85.2-.3.1-33.3c0-20.3-.4-33.6-1-34-.5-.3-8.1-.6-17-.6l-16-.1v-24.7c-.1-13.6-.4-25.1-.9-25.5-.4-.4-8-.8-16.9-.8h-16.2l-.1-64.6-.1-64.6 8.1-3.9c41.2-19.7 70.8-61.1 76.3-106.5 1.2-10.1.6-29.5-1.2-39.9-1.7-10.2-7.2-27.4-11.2-35.5-20.6-41.2-58.6-69.3-102.7-75.9-10.8-1.7-30.4-1.6-40.6 0zm37.3 69.3c22.2 5.7 39.5 22 47.3 44.6 2.4 7 2.8 9.6 2.8 20.5.1 11.2-.2 13.4-2.8 21.4-6 18.1-18.7 32.6-35.8 40.6-30 14-65.8 4.5-84.7-22.5-17.2-24.5-16.1-58.2 2.6-81.2 5.5-6.8 5.5-6.8 11.3-11.4 16.4-13.1 37.9-17.4 59.3-12z"/></svg>