<svg version="1" xmlns="http://www.w3.org/2000/svg" width="682.667" height="682.667" viewBox="0 0 512.000000 512.000000"><path d="M327.8 1c-12.3 2.1-26 7.9-35.6 15.1-7.3 5.6-24.1 21.7-32.9 31.8-15.1 17.3-21.5 34-21.5 56.2.1 10.8 2.6 23.2 6.6 32.3 3.1 6.9 10.4 18.1 14 21.6l2.7 2.4L146.7 275C34.5 387.4 32.3 389.6 29.1 396.7c-6.3 14.1-6.3 27.1.2 40.7 12.5 26 47.6 34.4 69.9 16.6 2-1.7 4-3 4.5-3 .4 0 14.2 13.5 30.8 29.9 32.8 32.8 33.4 33.2 40.7 29.7 1.9-.9 12.1-10.3 22.6-20.9 20.3-20.6 21.7-22.6 19.2-29.2-.6-1.6-7.6-9.5-15.6-17.5L187 428.4l9.3-9.2 9.3-9.2 3.9 4.1c7.1 7.3 11.3 9.9 16.4 9.9h4.5l20.7-20.7c21.6-21.8 22.6-23.2 20.8-29.7-.6-2.1-8-10.2-22.6-24.8L227.5 327l50-50 49.9-50 3.1 2.9c1.6 1.6 5.8 4.8 9.3 7.1 21.1 14.2 51.7 17.1 76 7.1 11.7-4.8 18-9.6 35.5-27 22.7-22.4 27.9-29.9 33.3-47.8 3.7-12.1 3.9-30.9.6-42.5-6-21.3-9.1-25.3-55.4-71.4-41.6-41.4-44.7-44-59.8-49.9C357.7.7 340.7-1.1 327.8 1zm24.7 24.5c3.9.8 10.4 3.1 14.5 5.1 7 3.4 10 6.2 45.3 41.3 20.8 20.7 39.6 40.2 41.7 43.4 5.2 7.7 8 15.4 9.2 25.7 1.4 10.7-.5 21.1-5.8 32-3.2 6.6-5.8 9.7-21.8 25.6-15.1 15.1-19.2 18.6-24.6 21.2-9 4.3-17 6.2-26.5 6.2-16.3 0-27.9-5-42.1-18.1-9.5-8.9-12.9-10.6-18.1-9.4-1.9.4-22 19.6-63.5 60.8-64.2 63.6-63.4 62.8-62 70.3.3 2.1 6.7 9.2 22.6 25.2l22 22.2-9.2 9.3-9.2 9.2-21.7-21.7c-18.3-18.2-22.4-21.8-25.5-22.3-9.2-1.7-16.9 8.5-12.7 16.8.6 1.2 6.1 7.3 12.2 13.5l11.2 11.2-9.2 9.2-9.3 9.2-12.3-12.2c-12.2-12-12.5-12.2-16.9-12.2-5.3 0-9.3 2.7-11.4 7.6-2.9 6.9-2.4 7.6 29.7 39.9l29.9 30-9.2 9.3-9.3 9.2-30.5-30.4c-32.2-32-33.4-32.9-39.7-30.5-1.4.5-5.5 3.7-9 6.9-3.5 3.3-7.8 6.7-9.6 7.7-13.6 7.1-29.4-.2-32.8-15.2-1-4.3-.9-6.1.6-11.1l1.7-5.9 118.8-119C297.6 157.7 291.8 164 289.1 156.7c-.6-1.5-4.9-6.7-9.5-11.6-12.7-13.5-17.6-24.8-17.6-41.5 0-20.6 6.2-31.9 30.5-55.5 15.5-15 23-19.7 36-22.6 8-1.8 15.5-1.8 24 0z"/><path d="M354.5 89.4c-14 3.5-24.3 13.8-28.1 28.1-3.4 12.5.6 26.5 10.1 36 15 15.1 38.8 15 53.9-.1 21.5-21.4 10.5-58-19.2-64.3-6.5-1.4-10.2-1.3-16.7.3zm15.3 24.6c10.5 4.8 10.3 20.4-.3 25.4-12.9 6.1-25.7-8.9-17.9-20.9 1.9-2.9 8.5-6.5 11.9-6.5 1.1 0 3.9.9 6.3 2z"/></svg>