<svg version="1" xmlns="http://www.w3.org/2000/svg" width="933.333" height="933.333" viewBox="0 0 700.000000 700.000000"><path d="M336.7.6c-.1.1-2 .3-4.2.5-2.2.1-4.6.8-5.4 1.3-1.2.9-1.3.8-.6-.3.6-1.1.4-1.3-1.1-.7-1 .5-3.7 1-5.9 1.3-2.2.2-4.7.7-5.5 1-.8.4-2.2.7-3 .8-.8.1-2.3.5-3.3 1-1 .4-2.1.5-2.4.1-.3-.3-1.1-.2-1.7.3-.6.6-2.5 1.2-4.1 1.5-1.7.2-3.1.5-3.2.6-.2.2-.6.3-1 .4-.5.1-1.4.5-2 .9-.7.5-1.7.5-2.3.2-.5-.3-1-.2-1 .3 0 1.1-3.5 2.5-6.2 2.5-1 0-1.8.4-1.8.8 0 .5-.3.8-.7.7-.5-.1-3.9 1.2-7.6 3-3.8 1.8-7.2 3.2-7.7 3.2s-1 .3-1.2.7c-.1.5-2.1 1.7-4.3 2.8-6.6 3.3-13.5 7.7-13.5 8.7 0 .5-.5.6-1 .3-.6-.3-1.3.1-1.6.9-.3.9-1 1.6-1.5 1.6-1.1 0-10.3 6.9-10.7 8.1-.2.5-1 .9-1.8.9-.9 0-1.2.4-.9 1 .6.9-.8 1.4-2.8 1.1-.5-.1-.7.2-.4.6.5 1-2.9 4.3-3.7 3.5-.3-.3-.6.1-.6.9s-1.3 2.3-2.9 3.4c-1.6 1-2.9 2.2-2.8 2.5.1.3-2 2.7-4.6 5.5-2.6 2.7-4.7 5.4-4.7 5.8 0 .5-.5.5-1.2.1-.6-.4-.8-.3-.5.3.4.6-.5 2.2-2 3.7-1.4 1.4-2.2 2.6-1.8 2.6.4 0-.3.9-1.6 2-1.3 1-2 1.9-1.6 2 .4 0-.4 1.2-1.8 2.6-1.4 1.4-2.3 2.9-2 3.4.3.4-.1 1-.8 1.3-.7.2-2.3 2.6-3.6 5.3-1.4 2.7-2.8 5.1-3.1 5.4-.4.3-2.1 3.5-3.7 7.3-1.6 3.7-3.3 6.4-3.8 6-.4-.5-.5-.3-.2.3s-.1 2.3-.9 3.8c-.7 1.6-1.4 3.7-1.4 4.7 0 1.1-.5 1.9-1.2 1.9-.6 0-.8.3-.5.7.4.3.2 1.2-.4 2-.6.7-.9 1.3-.5 1.3s0 1.3-.8 2.9c-.9 1.6-1.2 3.1-.9 3.5.4.3.2.6-.3.6-.6 0-1.1 1-1.2 2.2-.3 4.4-1.4 8.8-2.1 8.3-.4-.2-.7.6-.6 1.8.1 1.2 0 2.6-.4 3.2-.3.5-.6 1.9-.7 3-.7 6.4-1.2 9.3-1.6 10.1-.6 1.2-1 5.5-1.1 12.9-.1 3.3-.6 6.3-1.2 6.7-.6.5-.5.8.4.8s1 .4.5 1.2c-1.1 1.6-1.1 3.9-.1 5.5.5.7.5 1.3 0 1.3-.4 0-.8 1.3-.8 3 0 1.6.2 3 .5 3s.6 2.6.7 5.8c.1 7.5 1 15.2 1.7 15.9.3.4 0 1.3-.7 2.1-.9 1.3-.9 1.4.1.8.6-.4 1.2-.4 1.3.1.1.4.2 2.1.4 3.8.1 1.6.4 3 .5 3 .1 0 .4.9.5 2 .1 1.1.9 4.2 1.7 7 .9 2.7 1.7 5.4 1.8 6 .9 3.5 3 9.6 4.8 13.5.8 1.9 1.5 4.1 1.5 4.7 0 .7.4 1.3.9 1.3.4 0 .7.3.6.7-.4 1.5 9.8 21.1 11.7 22.5.6.4.6.8.2.8-.5 0-.1.7.7 1.6.9.8 1.6 2.1 1.6 2.9 0 .7.7 1.5 1.5 1.9.8.3 1.5 1.2 1.5 2.1 0 .8.5 1.5 1 1.5.6 0 1 .7 1 1.6 0 .8.5 1.2 1 .9.6-.3 1 0 1 .7 0 .8 1.3 2.8 3 4.6 1.6 1.8 3 3.7 3 4.2s1 1.2 2.1 1.5c1.6.5 1.8.9.9 1.5s-.7 1 .9 1.5c1.1.3 2.1 1.1 2.1 1.6 0 .9 9.6 10.9 10.5 10.9.2 0 2.1 1.7 4.3 3.8 5.6 5.2 8.1 7.2 9.1 7.2.5 0 1.2.7 1.5 1.6.3.8 1 1.2 1.6.9.5-.3 1 .1 1 1s.4 1.4.9 1.1c.4-.3 1.6.3 2.6 1.4 1 1.1 2.4 2 3 2 .7 0 1.8.7 2.5 1.5.7.9 2.9 2.3 4.9 3.2 2 .9 3.8 1.9 4.1 2.2.3.4 1.9 1.3 3.5 2.1 1.7.8 3.2 1.8 3.5 2.1.3.4 1.4.9 2.5 1.1 1.1.1 2.6.9 3.3 1.6.8.7 1.8 1 2.3.7.5-.4.9-.1.9.5s.4.9.9.5c.6-.3 1.3.1 1.8.9.4.8 1.3 1.5 1.8 1.5 1.5.1 1.6 62.2.1 64-.8 1.1-.8 1.3.1.8 1.6-1 1.6 13.2 0 15.2-.9 1.1-.9 1.3 0 .8.9-.6 1.2 29.5 1.2 125.5 0 69.5.1 127.8.1 129.5v3.3h233.7l-.2-5.5c-.1-3.3.2-5.5.9-5.5.6 0 .6-.4-.2-1.2-.8-.8-.8-1.7-.1-3.1.6-1.1.7-1.7.2-1.4-.4.3-.8-3.7-.8-8.9 0-5.3.4-9.4 1-9.4.5 0 .4-.5-.3-1.2-.8-.8-.8-1.7-.1-3.1.6-1.1.7-1.7.2-1.4-.4.3-.8-3.7-.8-8.9 0-5.3.4-9.4.9-9.4.6 0 .5-.5-.2-1.2-.8-.8-.8-1.7-.1-3.1.6-1.1.7-1.7.2-1.4-.4.3-.8-3.7-.8-8.9s.4-9.4.8-9.4c.5 0 .5-.5.1-1.2s-.8-2.6-.8-4.3c-.1-1.9-.6-3-1.6-3.1-.8-.1-1.9-.3-2.5-.4-.5-.1-1.4-.1-2 0-3.1.7-6.5.6-6.5-.2 0-.5-.6-.6-1.2-.1-1.9 1.1-3.8 1.2-3.8.2 0-.6-.6-.7-1.3-.2-1.8 1.1-3.6 1.2-4.3.2-.3-.5-1.3-.5-2.4.1-1.3.7-2.1.7-2.5 0-.4-.6-1.1-.8-1.6-.5-1.8 1.2-4.9 1.4-5.4.4-.4-.5-1.2-.6-1.8-.2-1.9 1.1-4.7 1.1-4.7-.1 0-.6-.4-.5-.9.2-1.2 2-2.1 1.9-3.4-.3-1.3-2.5-1.6-6.5-.4-6.5.5 0 .5-.6-.1-1.3-.7-.8-.7-1.8-.2-2.7.5-.8.6-1.9.2-2.5-1-1.5-.9-2.9.3-3.7.6-.5.6-.8-.2-.8-.9 0-1-.7-.4-2.3.5-1.3.5-3 .1-3.7-.5-.8-.5-2.1 0-3.1.5-.9.6-1.9.3-2.3-1-.9-1-5.6 0-5.6.4 0 .5-.5.1-1.2-1-1.6-1.3-6.8-.4-6.8.4 0 .7-.7.7-1.5s-.3-1.5-.7-1.5c-.6 0-.6-2.6 0-5.5.1-.6.1-1.2 0-1.5-.7-1.8-.4-6 .4-6 .6 0 .5-.5-.1-1.1-.8-.8-.8-2-.3-3.5.6-1.6.6-2.4-.1-2.4-.6 0-.6-.6 0-1.8.9-1.6.6-1.8-2-1.7-1.6.1-3.2-.2-3.5-.7-.3-.4-1.4-.3-2.5.2-1.3.8-1.9.7-1.9 0 0-.8-.6-.8-2 0s-2 .8-2 0c0-.7-.7-.7-2.1.1-1.2.6-2.4.7-2.8.3-.7-1.1-4.1-1.5-4.1-.5 0 .4-1.3.7-3 .6-1.6 0-3-.3-3-.8 0-.4-.9-.3-1.9.3-1.3.7-2.2.7-2.6 0-.4-.7-1.3-.7-2.6 0-1.3.8-1.9.7-1.9 0s-.7-.7-2.1.1c-1.6.8-2.3.8-2.9 0-.3-.7-1.3-.9-2.2-.6-1.4.5-1.5-8.8-1.6-87.9v-88.5l7.7-3.7c4.2-2 8.1-3.7 8.8-3.7.7 0 1-.4.7-.8-.3-.5.7-1.1 2.1-1.5 1.4-.3 2.5-1 2.5-1.5s.3-.8.8-.7c1 .3 9.7-4.9 11.2-6.7.7-.8 1.6-1.2 2.1-.9.5.3.9.2.9-.3 0-.4 2.1-2.2 4.5-3.8 2.5-1.7 4.5-3.3 4.5-3.8 0-.4.4-.7.8-.7 1.1 0 8.6-6.7 16.6-14.6 6.8-6.9 8.5-8.8 13.5-15.4 1.9-2.5 4.3-5.3 5.3-6.3s1.5-2.3 1.2-2.9c-.4-.7-.2-.8.4-.4 1.1.6 1.4.1 1.1-2 0-.3 1-1.4 2.2-2.5 1.2-1 1.9-1.9 1.4-1.9-.4 0 .4-1.5 1.9-3.4 1.4-1.9 2.6-3.9 2.6-4.4 0-.5 1.1-2.5 2.4-4.5 1.3-1.9 2.2-3.8 1.8-4.1-.3-.3 0-.6.7-.6s1.1-.6.8-1.4c-.3-.8.1-1.7.9-2 .8-.3 1.3-.9 1.2-1.3-.3-1 1.3-5.6 2.1-6.3 1.2-1 6.1-15.8 6.4-19.3.1-.9.4-1.7.7-1.7.4 0 .7-.6.8-1.3 0-.6.6-3.2 1.3-5.7.6-2.5 1.3-5.6 1.4-7 .2-1.4.4-2.5.5-2.5.2 0 .6-2.3 1.4-9 .3-1.7.5-3 .6-3 .1 0 .3-2.9.5-6.5.1-3.6.6-7.4 1-8.4.7-1.5.5-1.7-.6-1.1-1.1.7-1.2.6-.2-.6.7-.9.8-2 .3-2.9-.5-.8-.6-1.9-.2-2.4 1-1.7.9-6.6-.2-6.6-.6 0-.5-.5.2-1.2.6-.6.8-1.8.3-2.7-.4-.9-.7-4-.7-6.9.1-2.8-.3-5.2-.7-5.2-.5 0-.6-.4-.3-.9.4-.5.2-2-.3-3.3-.5-1.4-.6-3.1-.1-3.9.6-.8.3-2-.6-3.1-.9-.9-1.3-2.1-1-2.6.3-.5-.2-3.4-1-6.3-.9-3-1.8-6.5-2-7.9-.4-2.3-1.2-4.7-3-9.5-.4-1.1-.8-2.3-.9-2.8-.2-.4-.4-.9-.5-1.2-.1-.3-.3-.8-.5-1.3-.1-.4-.7-2-1.3-3.5-.7-1.6-1.2-3-1.2-3.3 0-1.3-3.6-8.4-4.3-8.4-.4 0-.5-.5-.2-1 .3-.6.1-1-.4-1-.6 0-1-.3-1-.8.3-1.7-.2-3.1-1.3-4.4-.7-.7-2.9-4.3-4.8-8-1.9-3.6-3.8-6.4-4.2-6.2-.5.3-.8-.3-.8-1.3s-1.3-3.3-3-5.1c-1.6-1.8-3-3.7-3-4.3 0-.5-.4-.9-1-.9-.5 0-1-.5-1-1.1 0-.6-.6-1.6-1.2-2.3-.7-.7-4.2-4.6-7.8-8.6-3.6-4-7.6-8.2-8.9-9.4-1.3-1.1-4.1-3.8-6.3-5.9-2.2-2-4.2-3.7-4.4-3.7-.3 0-1.5-.9-2.7-2-5.3-5-19.7-14.6-19.7-13.3 0 .5-.5 0-1.1-1-.5-.9-1.6-1.7-2.3-1.7-.8 0-1.9-.7-2.6-1.5-.7-.8-2.1-1.5-3.2-1.5-1.2 0-1.7-.4-1.2-1.2.4-.7.3-.8-.5-.4-.6.4-1.8 0-2.7-.8-.8-.9-2.4-1.6-3.5-1.6-1 0-1.9-.5-1.9-1.1 0-.5-.4-.7-1-.4-.5.3-1 .1-1-.4 0-.6-.9-1.1-2-1.1s-2-.4-2-.8c0-.5-.6-.9-1.2-1-3.3-.3-5.2-1-5.6-2-.2-.6-.9-.9-1.7-.6-.7.3-2.7-.2-4.4-1.1-1.7-.8-3.1-1.2-3.1-.8 0 .4-.5.2-1.2-.5S403.4 7 401.9 7s-3.1-.5-3.4-1c-.4-.6-1.1-.8-1.6-.5-.5.4-1.5.3-2.1-.2-.7-.4-1.7-.8-2.3-.8-.5-.1-2.1-.4-3.5-.8-2.7-.7-8.4-1.6-14-2.2-1.9-.2-3.5-.4-3.5-.5 0-.3-34.5-.7-34.8-.4zm12.5 94c.7.5.8.2.3-.6-.5-.9-.2-1 1.4-.5 1.1.3 5.1.8 8.8 1 3.8.3 7.7.7 8.8.9 5 1.2 13.3 3.6 16 4.6 1.7.6 3.2 1.2 3.5 1.2.3 0 1.7.9 3.3 2 1.5 1.1 2.7 1.6 2.7 1.1 0-.4.4-.3.8.2.4.6 2.4 1.9 4.5 3s4.9 2.9 6.2 4c1.4 1.1 3.9 3.1 5.6 4.5 3.3 2.6 9.2 8.7 12.8 13 1.1 1.4 2.5 3 3 3.6.5.7.7 1.5.4 1.8-.4.3-.2.6.3.6s2.1 2.1 3.4 4.7c1.4 2.7 2.8 5 3.1 5.3 1.2.9 3.7 7.8 3.1 8.4-.3.3 0 .6.7.6.8 0 1.1.7.7 1.5-.3.8 0 1.5.6 1.5s.8.3.5.6c-.3.4-.2 1.5.3 2.5.6 1 1.1 2.9 1.2 4.3.1 1.5.6 2.6 1.1 2.6.4 0 .7.6.5 1.2-.1.7.2 4.2.6 7.8 1.2 9.3 1.3 21.9.2 21.2-.5-.3-.7.2-.3 1 .3.9.3 1.9 0 2.2-.3.3-.7 2-.9 3.8-.6 5.4-1 6.8-2.1 7.9-.6.6-.9 1.7-.7 2.4.3.7-.6 3.8-2 7-1.5 3.2-2.6 6.4-2.6 7.1 0 .8-.4 1.4-.8 1.4s-2 2.5-3.6 5.5c-1.6 3.1-3.2 5.2-3.8 4.9-.6-.4-.9-.1-.6.6.2.8-.3 2.2-1.1 3.1-4 4.6-16.2 16.8-16.6 16.6-.2-.1-1.5.8-2.9 2-1.5 1.3-3.1 2.3-3.6 2.3-.6 0-1.3.7-1.6 1.5-.4.8-1 1.3-1.4 1-.4-.3-1.9.5-3.4 1.6-1.4 1.1-2.6 1.8-2.6 1.5 0-.3-2.1.5-4.7 1.9-2.6 1.3-5.1 2.1-5.5 1.9-.4-.3-.8-.1-.8.4s-.6.9-1.2 1c-.7 0-3.1.6-5.3 1.2-2.2.6-5 1.2-6.2 1.3-1.3 0-2.3.4-2.3.8 0 .3-1 .5-2.2.5-1.3-.1-3.3.1-4.5.6-1.5.5-2.3.4-2.3-.3 0-.8-.4-.8-1.4 0-1 .8-1.6.9-2.1.2-.4-.7-1.3-.6-2.6.2-1.6 1-2.1.9-2.9-.3-.6-1-1-1.1-1-.3 0 1.3-2.6 1.3-4.7 0-.6-.4-1.5-.3-1.8.3-.4.7-1.2.7-1.8.2-.7-.4-3-1-5.2-1.1-2.2-.2-4.4-.6-5-1-.5-.4-2.3-.8-4-1-1.6-.2-3.2-.6-3.5-1-.3-.3-1.4-.7-2.5-.9-2.9-.5-18.2-8.3-20.5-10.4-1-1-2.2-1.8-2.5-1.8-.7 0-2.2-1.3-7-5.7-1.9-1.8-3.5-3-3.5-2.7 0 .2-.6-.1-1.4-.8-.8-.7-1.3-1.4-1.1-1.6.2-.2-.9-1.6-2.3-3.1-1.5-1.5-3.6-4-4.7-5.5-1.1-1.6-2.6-3.4-3.3-4.2-.7-.8-1-1.4-.5-1.4.4 0 .3-.4-.3-.8-1.4-.9-7.7-13.1-7.7-14.9 0-.7-.3-1.3-.7-1.3-.9 0-3.5-9-3.2-10.8.2-.6-.1-1.2-.6-1.2s-.9-.6-.9-1.3c0-.6-.3-3.2-.8-5.7-.9-5.5-1.2-28-.4-27.4.3.2.7-.9.7-2.4.2-3.5.6-5.4 1.3-6.7.4-.6.5-1.8.4-2.8-.2-.9.1-1.7.7-1.7s.8-.9.5-2c-.3-1.1-.2-2 .3-2 .4 0 1.1-1 1.5-2.3.4-1.2.8-2.5 1-3 .6-1.8.7-2.2.6-3 0-.4.4-.7 1.1-.7.6 0 .8-.3.5-.7-.4-.3 0-1.5 1-2.5.9-1 1.3-1.8.9-1.8s0-.7.8-1.6c.9-.8 1.4-2 1.1-2.5-.4-.5-.2-.9.2-.9.5 0 1.6-1.2 2.5-2.8 3.7-6.1 14.8-18.2 16.8-18.2.8 0 1-.3.7-.6-.7-.8 9.5-8.4 10.4-7.8.4.2.9-.3 1.3-1.1.3-.8 1.2-1.5 2.1-1.5.8 0 1.5-.4 1.5-1s.3-.9.8-.8c.4.1 2.2-.6 4-1.5 1.7-1 3.2-1.4 3.2-1 0 .5.4.3.8-.4.4-.6 2-1.4 3.6-1.7 1.5-.3 3.4-1 4.2-1.7.8-.6 1.4-.9 1.4-.6 0 .4 1.7 0 3.8-.7 2-.7 4.5-1.2 5.5-1 .9.1 1.7-.2 1.7-.6 0-.5 1.8-.7 4-.5 2.3.2 3.8.1 3.6-.4-.6-.9 5-.5 6.6.5z"/></svg>